<?xml version="1.0" standalone="no"?>
<!DOCTYPE svg PUBLIC "-//W3C//DTD SVG 1.1//EN" "http://www.w3.org/Graphics/SVG/1.1/DTD/svg11.dtd" >
<svg xmlns="http://www.w3.org/2000/svg">
<metadata>Generated by IcoMoon</metadata>
<defs>
<font id="icomoon" horiz-adv-x="1024">
<font-face units-per-em="1024" ascent="960" descent="-64" />
<missing-glyph horiz-adv-x="1024" />
<glyph unicode="&#x20;" horiz-adv-x="512" d="" />
<glyph unicode="&#xe900;" glyph-name="f" horiz-adv-x="485" d="M330.213 746.792c20.372 0 63.434 0 103.316 0 0 21.127 0 93.992 0 161.307-53.194 0-113.772 0-140.504 0-199.033 0-194.344-155.055-194.344-178.23s0-126.653 0-126.653h-92.322v-154.947h92.322v-460.315h189.656v460.315h127.299c0 0 11.911 74.321 17.731 155.486-16.6 0-144.276 0-144.276 0s0 90.166 0 105.957c0 15.791 20.642 37.080 41.122 37.080z" />
<glyph unicode="&#xe901;" glyph-name="inst" d="M338.688 921.28c86.208 0 172.416 0 258.56 0 53.888 0 121.664 2.176 165.376-9.92 64.512-17.984 116.928-47.168 151.168-95.168 66.304-93.056 55.104-255.68 55.104-414.848 0-106.688-0.448-209.856-32.512-282.624-20.608-46.848-62.272-82.496-104.576-107.968-66.432-40.064-189.632-35.52-295.296-35.52-38.656 0-77.248 0-115.904 0-18.048 0-40.896-1.984-56.512 1.408-14.592 0-29.184 0-43.776 0-6.976 1.536-19.52-0.512-28.288 1.408-26.624 5.824-53.632 4.928-77.696 12.8-102.848 33.536-152.128 96.128-179.456 205.952-10.048 40.384-5.504 92.096-7.104 139.264-1.536 46.336 0 101.312 0 151.936 0 86.016-6.016 181.632 15.552 248.576 29.952 92.992 90.368 145.024 185.152 173.312 23.424 7.040 50.624 4.416 76.288 9.984 10.176 2.176 26.24-3.392 33.92 1.408zM364.096 836.032c-28.224-1.408-56.512-2.816-84.8-4.224-76.544-17.344-121.152-36.8-148.352-103.68-21.824-53.696-18.368-137.024-18.368-210.24 0-39.808 0-79.616 0-119.36 0-19.456-2.24-44.096 1.408-61.056 0.512-29.376 0.96-58.752 1.408-88.064 3.2-14.592 1.792-30.784 5.696-45.504 12.224-46.528 32.192-82.368 66.368-106.496 70.464-49.664 238.336-35.52 357.504-35.52 93.76 0 198.72-5.12 257.216 31.232 34.944 21.76 57.664 58.304 70.656 102.272 6.784 23.040 3.072 50.176 8.448 75.328 0 13.696 0 27.456 0 41.152 4.096 19.2 1.408 46.464 1.408 68.224 0 44.48 0 88.96 0 133.504 0 103.168 1.664 197.632-42.368 257.088-19.968 27.008-55.36 45.184-91.84 55.424-16 2.368-32.064 4.736-48.064 7.104-23.040 0.448-46.144 0.96-69.248 1.408-25.408 5.504-60.864 1.408-89.024 1.408-59.328 0-118.72 0-178.048 0zM737.152 757.888c32.832 0.896 50.304-8.768 62.208-28.352 22.656-37.504-8.576-77.376-39.616-85.248-40.064-10.176-78.336 34.368-66.368 72.448 4.096 13.056 14.72 27.392 25.408 34.112 5.44 3.392 13.056 3.456 18.368 7.040zM491.264 692.544c117.056 0.832 197.504-69.504 231.744-151.936 23.424-56.32 20.416-136.576-2.816-190.336-26.304-60.992-76.48-105.408-138.496-130.688-19.712-8.064-42.112-9.28-64.96-14.272-10.816-2.304-29.568-0.448-38.144 1.472-7.552 0.448-15.104 0.96-22.656 1.408-19.84 4.864-38.656 11.264-55.104 18.432-69.952 30.528-111.104 81.088-135.616 157.696-8.512 26.432-14.976 70.272-7.104 103.68 3.776 14.72 7.552 29.376 11.328 44.096 28.224 69.504 76.416 117.952 145.536 146.24 16.576 6.848 36.608 8.704 55.104 12.8 6.976 1.6 16.256-1.6 21.184 1.408zM482.816 605.952c-2.816-1.728-6.976-0.384-11.328-1.472-11.264-3.264-22.592-6.592-33.92-9.92-40.512-17.664-70.976-50.56-87.616-92.352-5.248-13.248-3.584-25.152-7.040-41.152-5.12-24 2.88-51.52 9.92-68.224 17.984-42.816 42.176-70.080 84.736-88.064 17.344-7.296 47.552-19.136 76.352-12.8 63.36 14.144 105.536 41.472 128.576 95.232 42.944 100.224-27.904 189.568-100.352 213.056-17.216 5.568-36.992 5.76-59.328 5.696z" />
<glyph unicode="&#xe902;" glyph-name="tw" d="M893.359 485.403c54.865 4.527 92.052 29.534 106.388 63.434-19.779-12.18-81.219-25.438-115.173-12.773-1.671 7.976-3.503 15.576-5.336 22.42-25.816 95.124-114.365 171.816-207.117 162.547 7.545 3.018 15.144 5.875 22.744 8.408 10.186 3.665 70.063 13.42 60.685 34.6-7.976 18.648-81.165-14.067-94.909-18.378 18.163 6.899 48.236 18.648 51.469 39.613-27.917-3.827-55.242-17.031-76.369-36.271 7.653 8.3 13.42 18.324 14.659 29.103-74.375-47.589-117.76-143.522-152.899-236.598-27.594 26.786-52.062 47.912-73.997 59.608-61.548 33.091-135.114 67.638-250.611 110.592-3.557-38.319 18.863-89.25 83.537-123.149-14.013 1.886-39.613-2.317-60.093-7.222 8.354-43.87 35.571-80.034 109.406-97.496-33.738-2.264-51.146-9.917-66.937-26.516 15.306-30.504 52.817-66.452 120.239-59.069-74.968-32.337-30.558-92.376 30.397-83.375-104.017-107.736-268.126-99.813-362.28-9.755 245.976-335.926 780.665-198.656 860.322 124.928 59.661-0.485 94.801 20.749 116.52 44.14-34.385-5.875-84.237 0.162-110.646 11.21z" />
<glyph unicode="&#xe903;" glyph-name="vk" d="M460.369 716.45c54.488 0.701 99.382-2.425 139.156-13.204 25.277-40.798 13.312-119.161 13.312-181.248 0-36.918-2.856-73.189 34.331-73.674 10.725 14.282 29.265 23.121 40.044 37.78 23.552 32.067 45.864 68.285 64.781 103.855 12.342 23.229 28.295 83.375 47.643 96.256 9.809 7.599 38.912 3.827 55.296 3.827 37.457 0.593 74.968 1.24 112.424 1.886 22.528 0 46.080-0.539 51.469-17.031 6.198-18.917-15.36-50.23-20.965-60.416-29.534-53.41-66.129-97.334-100.999-145.354-10.456-14.39-44.571-44.14-36.217-73.62 6.575-23.283 33.684-43.331 51.416-56.643 6.36-6.952 12.719-13.851 19.079-20.803 22.043-21.827 42.415-42.361 61.009-67.961 8.893-12.288 37.457-42.9 22.851-64.189-10.186-28.079-83.752-18.863-121.964-18.863-28.025 0-58.853-6.467-81.974 1.886-46.242 16.707-79.279 58.476-106.712 94.424-9.755 12.773-26.624 19.025-38.104 30.181-37.619-0.539-44.409-27.001-51.469-56.643-4.365-18.163 3.072-41.283-5.713-54.757-5.767-8.785-18.594-12.45-30.504-15.091-13.366 0-26.678 0-40.044 0-67.099 0-115.335 11.102-156.295 35.84-28.241 17.085-54.38 31.906-80.034 50.984-20.857 15.522-37.78 39.397-53.356 60.416-25.331 34.223-54.865 67.261-78.147 103.855-18.432 28.941-31.367 59.015-49.529 88.765-21.235 34.547-38.050 70.387-55.296 109.46-8.785 19.941-22.42 33.846-22.851 62.302 22.043 14.013 39.074 13.258 76.207 13.258 40.098 0 109.029 9.054 125.79-15.144 11.641-16.761 16.384-39.451 24.792-58.53 17.893-40.421 42.685-83.16 66.722-118.946 14.767-21.989 28.672-52.44 64.781-52.871 1.886 1.509 5.228 2.749 7.599 3.773 19.133 39.936 32.606 163.786 3.827 205.824-8.731 12.773-42.631 16.869-45.757 28.349 13.043 9.593 21.558 21.235 40.044 26.408 13.096 3.665 43.547-0.431 53.356 5.659z" />
<glyph unicode="&#xe904;" glyph-name="youtube" horiz-adv-x="755" d="M266.509 907.722l-31.582-129.132-32.822 129.132h-48.775c9.755-30.451 19.941-61.117 29.696-91.621 14.821-45.864 24.145-80.411 28.295-104.017v-133.12h46.349v133.12l55.673 195.638h-46.835zM437.14 744.098c0 26.139-4.204 45.272-12.989 57.667-11.587 16.761-27.81 25.169-48.721 25.169-20.803 0-37.080-8.408-48.613-25.169-8.893-12.396-13.096-31.528-13.096-57.667v-85.8c0-26.085 4.204-45.379 13.096-57.667 11.533-16.707 27.81-25.061 48.613-25.061 20.911 0 37.133 8.354 48.721 25.061 8.785 12.288 12.989 31.582 12.989 57.667v85.8zM591.549 823.916h-41.768v-187.23c-9.27-13.905-18.001-20.803-26.355-20.803-5.659 0-8.893 3.503-9.809 10.402-0.485 1.455-0.485 6.899-0.485 17.3v180.332h-41.661v-193.698c0-17.3 1.401-29.049 3.773-36.433 4.096-12.396 13.42-18.216 26.84-18.216 15.252 0 31.097 9.809 47.697 30.127v-26.732h41.768v244.952zM751.347 267.938c0 58.584 0 119.161-12.45 176.829-10.617 49.26-48.829 86.016-95.070 91.513-79.71 9.485-159.043 10.24-247.053 10.24v0h-23.444c-88.010 0-167.343-0.755-247.053-10.24-46.242-5.497-84.453-42.253-95.070-91.459-12.665-58.53-12.665-121.856-12.665-177.691 0-58.907 0-119.754 12.557-177.691 10.563-49.206 48.775-85.962 95.016-91.459 79.603-9.485 160.283-10.24 242.85-10.24h31.906c82.513 0 163.193 0.755 242.796 10.24 46.242 5.497 84.453 42.253 95.070 91.459 12.611 58.099 12.611 121.64 12.611 177.691v0.808zM665.384 132.77c-11.48-17.57-28.403-26.301-49.96-26.301-21.666 0-38.104 8.3-50.068 24.899-8.785 12.072-13.258 31.259-13.258 56.967v84.938c0 25.923 3.934 44.894 12.773 57.128 11.911 16.6 28.403 24.845 49.475 24.845 20.749 0 37.187-8.246 48.721-24.845 8.677-12.234 12.827-31.205 12.827-57.128v-50.23h-82.621v-42.954c0-22.474 6.899-33.63 21.073-33.63 10.186 0 16.115 5.875 18.486 17.624 0.377 2.425 0.862 12.072 0.862 29.75h42.2v-6.413c0-14.174-0.485-23.875-0.916-28.349-1.347-9.701-4.635-18.54-9.593-26.301zM634.557 259.638v22.42c0 22.42-6.899 33.63-20.534 33.63-13.851 0-20.749-11.21-20.749-33.63v-22.42h41.283zM482.735 106.469c-14.713 0-28.888 8.731-42.685 26.893v-23.498h-41.337v325.363h41.337v-106.28c13.366 17.408 27.486 26.301 42.685 26.301 16.438 0 27.486-9.216 33.037-27.325 2.749-9.755 4.15-25.816 4.15-48.775v-96.579c0-22.42-1.401-38.535-4.15-48.829-5.551-18.055-16.6-27.271-33.037-27.271zM478.639 282.597c0 21.881-6.090 33.091-18.001 33.091-6.791 0-13.689-3.449-20.588-10.671v-147.833c6.899-7.276 13.797-10.725 20.588-10.725 11.911 0 18.001 10.725 18.001 32.66v103.478zM321.59 136.273c-16.384-19.995-32.013-29.804-47.212-29.804-13.312 0-22.528 5.767-26.624 18.055-2.264 7.384-3.665 18.917-3.665 36.056v191.704h41.337v-178.499c0-10.24 0-15.629 0.377-17.085 0.97-6.791 4.15-10.24 9.647-10.24 8.3 0 17.031 6.791 26.139 20.534v185.29h41.391v-242.419h-41.391v26.408zM188.578 109.864h-45.972v279.552h-48.613v45.811h144.115v-45.811h-49.529v-279.552zM375.431 615.882c-13.474 0-19.941 11.372-19.941 34.008v103.101c0 22.69 6.467 33.954 19.941 33.954s19.941-11.264 19.941-33.954v-103.101c0-22.636-6.467-34.008-19.941-34.008z" />
<glyph unicode="&#xe905;" glyph-name="eye" horiz-adv-x="997" d="M953.398 400.195c-113.448-143.737-284.16-226.196-468.372-226.196-184.239 0-354.951 82.459-468.372 226.196-22.205 28.16-22.205 67.476 0 95.636 113.421 143.764 284.133 226.196 468.372 226.196 136.893 0 270.471-47.158 376.131-132.797 5.794-4.689 11.587-9.566 17.192-14.471 10.213-8.947 11.183-24.387 2.129-34.493s-24.684-11.048-34.897-2.102c-5.147 4.5-10.456 8.973-15.764 13.285-42.846 34.708-90.678 62.518-141.581 82.728 45.891-48.883 74.024-114.338 74.024-186.152 0-72.111-28.349-137.809-74.644-186.772 88.064 34.789 166.319 92.376 226.789 169.014 8.246 10.456 8.246 25.061 0 35.517-8.408 10.644-6.467 26.004 4.285 34.304 10.779 8.273 26.301 6.387 34.708-4.258 22.205-28.16 22.205-67.476 0-95.636zM55.646 465.785c-8.273-10.456-8.273-25.061 0-35.517 60.443-76.638 138.671-134.198 226.735-169.014-46.242 48.963-74.59 114.661-74.59 186.772s28.349 137.809 74.59 186.772c-88.064-34.816-166.292-92.403-226.735-169.014zM712.812 448.027c0 124.066-102.050 225.011-227.571 225.118-0.054 0-0.135 0-0.216 0-0.108 0-0.216 0-0.296 0-125.494-0.135-227.49-101.080-227.49-225.118 0-124.066 102.023-224.984 227.49-225.145 0.081 0 0.189 0 0.296 0s0.189 0 0.296 0c125.467 0.162 227.49 101.080 227.49 225.145zM485.026 344.333c-57.856 0-104.906 46.511-104.906 103.693s47.050 103.667 104.906 103.667c57.829 0 104.879-46.484 104.879-103.667s-47.050-103.693-104.879-103.693zM485.026 502.838c-30.585 0-55.458-24.603-55.458-54.811s24.872-54.811 55.458-54.811c30.558 0 55.458 24.603 55.458 54.811s-24.899 54.811-55.458 54.811zM805.187 729.923c-4.824-4.77-11.156-7.168-17.489-7.168s-12.638 2.398-17.462 7.168c-9.674 9.539-9.674 25.007 0 34.547l46.107 45.595c9.674 9.539 25.331 9.539 34.978 0s9.647-25.034 0-34.547l-46.134-45.595zM485.026 819.523c-13.662 0-24.738 10.941-24.738 24.441v91.621c0 13.501 11.075 24.441 24.738 24.441 13.635 0 24.711-10.941 24.711-24.441v-91.621c0-13.501-11.048-24.441-24.711-24.441zM182.326 722.755c-6.306 0-12.638 2.398-17.462 7.168l-46.134 45.595c-9.647 9.539-9.647 25.007 0 34.547s25.304 9.539 34.951 0l46.134-45.595c9.647-9.539 9.647-25.007 0-34.547-4.824-4.77-11.156-7.168-17.489-7.168zM164.864 166.131c9.647 9.539 25.304 9.539 34.951 0s9.647-25.007 0-34.547l-46.134-45.622c-4.824-4.743-11.156-7.141-17.489-7.141-6.306 0-12.638 2.398-17.462 7.141-9.647 9.566-9.647 25.034 0 34.573l46.134 45.595zM485.026 76.531c13.635 0 24.711-10.941 24.711-24.441v-91.621c0-13.501-11.048-24.441-24.711-24.441s-24.738 10.941-24.738 24.441v91.621c0 13.501 11.075 24.441 24.738 24.441zM805.187 166.131l46.134-45.595c9.647-9.539 9.647-25.007 0-34.573-4.824-4.743-11.156-7.141-17.489-7.141s-12.665 2.398-17.489 7.141l-46.134 45.622c-9.647 9.539-9.647 25.007 0 34.547 9.674 9.539 25.304 9.539 34.978 0z" />
<glyph unicode="&#xe906;" glyph-name="search" d="M915.305 325.933c-72.433-72.403-167.575-108.634-262.716-108.634-86.889 0-173.809 30.238-243.411 90.684l-44.243-44.243 45.086-45.116c10.3-10.3 10.3-26.985 0-37.256l-211.275-211.275c-22.709-22.709-52.525-34.063-82.342-34.063-29.847 0-59.663 11.354-82.372 34.063-45.417 45.417-45.417 119.296 0 164.713l211.275 211.275c10.27 10.3 26.955 10.3 37.256 0l45.086-45.086 44.273 44.243c-126.615 145.83-120.621 367.556 17.95 506.157 144.866 144.896 380.567 144.896 525.432 0 144.866-144.836 144.866-380.567 0-525.463zM71.288 97.551c-24.847-24.877-24.847-65.325 0-90.202 24.877-24.877 65.325-24.877 90.202 0l117.88 117.911-90.172 90.202-117.911-117.911zM263.921 290.184l-37.466-37.466 90.202-90.202 37.466 37.496-90.202 90.172zM878.050 814.14c-62.163 62.163-143.812 93.244-225.461 93.244s-163.268-31.081-225.431-93.244c-124.326-124.326-124.326-326.596 0-450.921 124.296-124.326 326.566-124.326 450.891 0 124.296 124.326 124.296 326.596 0 450.921zM834.56 406.709c-48.61-48.61-113.242-75.384-181.971-75.384s-133.361 26.775-181.971 75.384c-48.58 48.61-75.354 113.242-75.354 181.971s26.775 133.361 75.354 181.971c48.61 48.61 113.242 75.384 181.971 75.384s133.361-26.775 181.971-75.384c48.61-48.61 75.384-113.242 75.384-181.971s-26.775-133.361-75.384-181.971zM797.274 733.395c-38.641 38.641-90.022 59.934-144.685 59.934s-106.044-21.293-144.685-59.934c-38.671-38.671-59.934-90.052-59.934-144.715s21.263-106.044 59.934-144.715c38.641-38.641 90.022-59.934 144.685-59.934s106.044 21.293 144.685 59.934c38.671 38.671 59.964 90.052 59.964 144.715s-21.293 106.044-59.964 144.715z" />
<glyph unicode="&#xe907;" glyph-name="menu" horiz-adv-x="1890" d="M1831.385 384.039h-1772.308c-32.61 0-59.077 28.672-59.077 64s26.466 64 59.077 64h1772.308c32.61 0 59.077-28.672 59.077-64s-26.466-64-59.077-64zM1831.385 832.039h-1772.308c-32.61 0-59.077 28.672-59.077 64s26.466 64 59.077 64h1772.308c32.61 0 59.077-28.633 59.077-64 0-35.328-26.466-64-59.077-64zM649.846 64.039h1181.538c32.61 0 59.077-28.672 59.077-64s-26.466-64-59.077-64h-1181.538c-32.61 0-59.077 28.633-59.077 64 0 35.328 26.466 64 59.077 64z" />
<glyph unicode="&#xe908;" glyph-name="arr_left" horiz-adv-x="574" d="M493.118-14.099l31.17 31.619-436.724 442.868 436.724 442.818-31.17 31.619-467.993-474.437 467.993-474.487z" />
<glyph unicode="&#xe909;" glyph-name="arr_right" horiz-adv-x="574" d="M56.345-14.099l-31.17 31.619 436.724 442.868-436.724 442.818 31.17 31.619 467.993-474.437-467.993-474.487z" />
<glyph unicode="&#xe90a;" glyph-name="triangle" horiz-adv-x="1229" d="M56.115 806.4c47.309 7.782 877.568 147.251 910.131 152.781 42.394 7.168 73.728-33.382 48.947-82.944-19.661-39.731-419.84-833.331-454.042-901.12-22.528-44.442-76.186-52.838-98.714-16.589-24.986 40.55-427.213 702.054-455.066 750.182-20.48 35.226 2.048 89.702 48.742 97.69z" />
<glyph unicode="&#xe90b;" glyph-name="close" d="M598.869 448.171l406.699 406.699c24.064 24.064 24.064 63.147 0 87.211s-62.976 24.064-87.040 0l-406.699-406.869-406.699 406.869c-24.064 24.064-62.976 24.064-87.040 0s-24.064-63.147 0-87.211l406.699-406.699-406.699-406.869c-24.064-24.064-24.064-63.147 0-87.211 11.947-11.947 27.648-17.92 43.52-17.92 15.701 0 31.403 5.973 43.52 17.92l406.699 407.040 406.699-407.040c11.947-11.947 27.819-17.92 43.52-17.92 15.872 0 31.573 5.973 43.52 17.92 24.064 24.064 24.064 63.147 0 87.211l-406.699 406.869z" />
<glyph unicode="&#xe90c;" glyph-name="forma" horiz-adv-x="1308" d="M1298.375 436.471l-399.796-251.752c-47.294-29.791-87.249-102.172-87.249-158.056 0-22.073 6.353-38.229 17.446-44.373 11.093-6.106 28.16-2.882 46.82 8.875l351.118 221.108c20.556 12.952 38.59 45.625 38.59 69.916 0 9.026-2.522 12.383-3.148 12.724s-4.798 0.702-12.459-4.115l-362.174-228.068c-10.088-6.353-23.4-3.319-29.753 6.751-6.353 10.088-3.319 23.4 6.77 29.753l362.174 228.068c19.608 12.345 40.126 14.298 56.282 5.385 16.175-8.932 25.448-27.345 25.448-50.498 0-38.931-25.809-85.675-58.747-106.42l-351.118-221.108c-19.646-12.364-39.064-18.622-56.984-18.622-12.023 0-23.381 2.807-33.678 8.495-25.619 14.146-39.727 43.311-39.727 82.129 0 71.168 47.18 156.634 107.406 194.56l370.802 233.51-727.704 458.24-393.159-247.58c-44.677-28.122-82.394-96.465-82.394-149.257v-11.492c0-52.793 37.717-121.135 82.394-149.257l601.847-378.994c10.088-6.353 13.103-19.665 6.77-29.753-6.353-10.069-19.665-13.103-29.753-6.751l-601.847 378.994c-57.515 36.2-102.552 117.798-102.552 185.761v11.492c0 67.963 45.037 149.561 102.552 185.761l404.651 254.824c7.016 4.418 15.948 4.418 22.983 0l768.19-483.745c6.258-3.944 10.069-10.847 10.069-18.242 0-7.415-3.793-14.317-10.069-18.261zM844.572 318.673c-3.906 0-7.851 1.062-11.397 3.281l-212.158 132.456c-10.088 6.315-13.179 19.627-6.865 29.734 6.315 10.088 19.608 13.179 29.715 6.865l212.139-132.475c10.107-6.296 13.198-19.608 6.884-29.715-4.096-6.542-11.131-10.145-18.318-10.145zM930.797 375.922c-3.925 0-7.87 1.062-11.435 3.3l-210.527 132.001c-10.107 6.334-13.16 19.646-6.827 29.734s19.646 13.141 29.734 6.808l210.527-132.001c10.088-6.334 13.141-19.646 6.827-29.734-4.096-6.523-11.112-10.107-18.299-10.107zM530.185 786.792l498.347-313.818c10.088-6.353 13.103-19.665 6.751-29.753-4.096-6.504-11.093-10.069-18.261-10.069-3.925 0-7.908 1.081-11.473 3.319l-498.347 313.818c-10.088 6.353-13.103 19.665-6.77 29.753 6.353 10.069 19.665 13.103 29.753 6.751zM718.184 196.798c-4.096-6.561-11.131-10.183-18.337-10.183-3.887 0-7.832 1.043-11.378 3.262l-527.625 328.059c-10.107 6.296-13.217 19.589-6.921 29.715 6.296 10.107 19.589 13.217 29.696 6.921l527.625-328.059c10.126-6.296 13.217-19.589 6.94-29.715zM417.564 730.359c7.016 4.418 15.948 4.418 22.964 0.019l210.546-132.020c6.239-3.925 10.050-10.752 10.107-18.129s-3.679-14.26-9.861-18.261l-48.318-31.232c-9.993-6.466-23.343-3.603-29.81 6.409-6.466 9.993-3.603 23.362 6.409 29.81l19.854 12.857-170.363 106.818-138.6-87.287 172.866-107.501 36.124 23.343c10.012 6.466 23.362 3.603 29.829-6.409s3.603-23.343-6.409-29.81l-47.616-30.777c-3.546-2.295-7.623-3.451-11.7-3.451-3.944 0-7.908 1.081-11.378 3.243l-213.769 132.911c-6.315 3.925-10.164 10.828-10.183 18.261s3.793 14.355 10.069 18.318l179.238 112.887zM526.279 427.311c6.296 10.126 19.589 13.236 29.715 6.94l213.769-132.93c10.107-6.277 13.217-19.57 6.921-29.696-4.077-6.58-11.131-10.183-18.337-10.183-3.887 0-7.813 1.043-11.359 3.262l-213.769 132.911c-10.126 6.296-13.217 19.589-6.94 29.696z" />
<glyph unicode="&#xe90d;" glyph-name="close-win" d="M562.472 448.458l450.56-450.56c14.040-14.040 14.040-36.81 0-50.823-14.040-14.067-36.81-14.067-50.85 0l-450.56 450.533-450.56-450.533c-14.067-14.067-36.837-14.067-50.877 0-14.040 14.013-14.040 36.783 0 50.823l450.587 450.56-450.587 450.587c-14.040 14.013-14.040 36.783 0 50.823 14.040 14.067 36.81 14.067 50.877 0l450.56-450.56 450.56 450.56c14.040 14.067 36.81 14.067 50.85 0 14.040-14.040 14.040-36.81 0-50.823l-450.56-450.587z" />
<glyph unicode="&#xe90e;" glyph-name="big_triangle" horiz-adv-x="1079" d="M63.574 802.5c49.603 7.905 920.253 146.741 954.468 152.198 44.378 7.077 77.396-33.346 51.432-82.63-20.785-39.499-440.388-829.508-476.278-896.942-23.579-44.296-79.79-52.574-103.392-16.493-26.324 40.232-448.066 698.841-477.366 746.733-21.49 35.062 2.248 89.338 51.136 97.134z" />
<glyph unicode="&#xe90f;" glyph-name="arr" horiz-adv-x="1638" d="M0 817.869c0-36.454 13.722-72.909 41.37-100.762l777.83-781.107 777.626 781.107c55.091 55.296 55.501 145.203 0.819 200.909s-143.565 55.91-198.656 0.614l-579.789-582.246-579.789 582.246c-55.091 55.296-143.974 55.091-198.656-0.614-27.238-27.648-40.755-63.898-40.755-100.147z" />
<glyph unicode="&#xe910;" glyph-name="arr_top" horiz-adv-x="1638" d="M0 78.131c0 36.454 13.722 72.909 41.37 100.762l777.83 781.107 777.626-781.107c55.091-55.296 55.501-145.203 0.819-200.909s-143.565-55.91-198.656-0.614l-579.789 582.246-579.789-582.246c-55.091-55.296-143.974-55.091-198.656 0.614-27.238 27.648-40.755 63.898-40.755 100.147z" />
<glyph unicode="&#xe911;" glyph-name="share" horiz-adv-x="1081" d="M1080.889 512.569c0 74.325-45.198 139.691-113.863 166.827v261.547c0 7.595-4.608 14.478-11.662 17.493-7.083 3.015-15.275 1.536-20.85-3.698-115.57-108.828-267.093-168.789-426.61-168.789h-232.704c-10.61 0-19.228-8.505-19.228-19.029s8.619-19.029 19.228-19.029h232.704c112.725 0 221.696 28.217 318.18 81.124v-83.598c0-10.496 8.59-19.029 19.228-19.029 10.61 0 19.228 8.533 19.228 19.029v106.439c22.158 14.194 43.52 29.724 64 46.649v-232.22c0-0.199 0-0.398 0-0.597v-306.204c0-0.199 0-0.398 0-0.597v-196.523c-20.48 16.896-41.842 32.427-64 46.62v467.115c0 10.496-8.619 19.029-19.228 19.029-10.638 0-19.228-8.533-19.228-19.029v-444.245c-96.484 52.907-205.454 81.124-318.18 81.124h-254.293c-71.396 0-129.508 57.515-129.508 128.199v178.517c0 51.627 31.061 98.020 79.104 118.13 9.785 4.096 14.364 15.275 10.212 24.946-4.124 9.7-15.417 14.222-25.202 10.126-61.952-25.941-102.087-85.532-102.542-152.036h-27.335c-32.171 0-58.34-25.913-58.34-57.742v-83.228c0-31.858 26.169-57.771 58.34-57.771h28.444c9.586-82.745 80.725-147.228 166.827-147.228h208.156l80.754-273.152c1.963-6.599 0.683-13.511-3.47-19.001s-10.524-8.647-17.436-8.647h-112.839c-9.614 0-18.233 6.372-20.935 15.531l-72.334 244.764c-2.987 10.069-13.682 15.872-23.865 12.914-10.212-2.958-16.043-13.54-13.056-23.609l72.334-244.764c7.481-25.259 31.26-42.923 57.856-42.923h112.839c19.143 0 36.722 8.704 48.213 23.893s15.019 34.332 9.614 52.537l-29.070 98.304h34.389c19.172 0 36.75 8.704 48.242 23.865 11.492 15.189 14.99 34.332 9.614 52.565l-22.983 77.71c117.618-21.191 226.702-75.719 314.908-158.748 3.641-3.442 8.391-5.262 13.255-5.262 2.56 0 5.12 0.512 7.566 1.536 7.083 3.015 11.662 9.899 11.662 17.522v225.849c68.665 27.164 113.863 92.501 113.863 166.798zM38.457 479.886v83.228c0 10.866 8.932 19.655 19.883 19.655h27.307v-122.567h-27.307c-10.951 0-19.883 8.818-19.883 19.684zM605.696 176.469c1.934-6.599 0.683-13.511-3.47-19.001-4.181-5.518-10.524-8.647-17.465-8.647h-45.625l-37.291 126.066h6.059c23.495 0 46.791-1.308 69.831-3.897l27.961-94.521zM967.026 387.726v249.714c45.966-24.263 75.406-71.623 75.406-124.843s-29.44-100.608-75.406-124.871z" />
<glyph unicode="&#xe912;" glyph-name="mail" horiz-adv-x="1741" d="M1676.595 260.506l-1036.411-272.384c-5.837-1.516-11.53-2.253-16.978-2.253-29.368 0-52.081 21.197-53.576 53.146l-26.378 559.247c-1.782 37.868 26.911 76.493 64.102 86.262l1036.411 272.384c5.816 1.536 11.51 2.273 16.957 2.273 29.389 0 52.081-21.217 53.596-53.146l26.358-559.247c1.782-37.888-26.911-76.493-64.082-86.282zM1663.816 892.764c-0.43 9.134-7.209 13.292-13.353 13.292-1.372 0-2.826-0.184-4.28-0.573l-1036.411-272.384c-9.277-2.437-16.466-12.124-16.015-21.565l26.358-559.247c0.43-9.155 7.229-13.312 13.353-13.312 1.393 0 2.826 0.205 4.28 0.573l1036.411 272.384c9.277 2.458 16.466 12.124 16.036 21.565l-26.378 559.268zM1624.003 335.626c-2.54 0-5.038 0.43-7.393 1.311l-282.726 105.472c-12.145 4.526-16.364 19.497-9.441 33.464 6.902 13.947 22.364 21.606 34.468 17.060l282.726-105.472c12.145-4.526 16.364-19.497 9.441-33.464-5.55-11.223-16.65-18.371-27.075-18.371zM1158.636 383.078c-5.919-5.878-13.373-9.073-20.378-9.073-2.826 0-5.55 0.512-8.090 1.577l-483.512 202.26c-11.899 4.977-15.606 20.214-8.294 33.997 7.291 13.804 22.856 20.951 34.755 15.974l468.787-196.116 438.108 434.442c11.141 11.039 26.993 12.165 35.41 2.519 8.417-9.667 6.226-26.44-4.915-37.478l-451.871-448.102zM910.602 380.457c10.998 11.203 26.89 12.595 35.492 3.113s6.656-26.235-4.342-37.437l-241.664-245.985c-6.083-6.205-13.681-9.4-20.705-9.4-5.652 0-10.936 2.068-14.766 6.287-8.602 9.482-6.656 26.235 4.342 37.437l241.644 245.985zM418.222-3.727l-162.447-42.701c-2.191-0.573-4.321-0.86-6.369-0.86-11.018 0-19.517 7.967-20.091 19.927-0.655 14.213 10.097 28.692 24.044 32.358l162.447 42.701c13.947 3.666 25.784-4.895 26.46-19.087 0.655-14.193-10.097-28.692-24.044-32.338zM336.65 424.796l-113.951-29.942c-2.191-0.573-4.321-0.86-6.369-0.86-11.018 0-19.517 7.967-20.091 19.948-0.676 14.193 10.097 28.672 24.044 32.338l113.951 29.942c13.947 3.686 25.784-4.874 26.46-19.067s-10.097-28.692-24.044-32.358zM271.073 171.315c0.676-14.213-10.097-28.692-24.023-32.358l-214.589-56.381c-2.171-0.594-4.321-0.86-6.349-0.86-11.018 0-19.538 7.946-20.111 19.927-0.655 14.193 10.097 28.692 24.044 32.358l214.569 56.381c13.967 3.666 25.784-4.874 26.46-19.067z" />
<glyph unicode="&#xe913;" glyph-name="triangle_right" horiz-adv-x="901" d="M871.834 489.615l-702.423 453.919c-24.699 15.933-61.768 20.726-94.003 12.042-32.195-8.602-53.207-28.918-53.207-51.446v-907.715c0-22.569 21.012-42.885 53.207-51.487 10.691-2.908 21.873-4.219 32.973-4.219 22.446 0 44.483 5.652 61.030 16.261l702.423 453.919c16.056 10.363 25.272 24.74 25.272 39.404 0 14.623-9.216 29-25.272 39.322z" />
</font>
</defs>
</svg>
